<svg
   version="1.1"
   x="0"
   y="0"
   viewBox="0 0 15 15"
   width="15" height="15"
   xmlns="http://www.w3.org/2000/svg"
   >
  <path
     d="m 8.7184644,1.2907652 c 0.2653081,0.2653082 0,0.5306163 0,1.5918488 0,1.5918488 0,2.1224651 0.5306162,2.6530813 0.5306163,0.5306163 0.5306163,1.0612326 0.5306163,2.6530814 0,0 0,5.8367793 0,5.8367793 0,1.061232 -4.2449301,1.061232 -4.2449301,0 0,0 0,-5.8367793 0,-5.8367793 0,-1.5918488 0,-2.1224651 0.5306163,-2.6530814 0.5306162,-0.5306162 0.5306162,-1.0612325 0.5306162,-2.6530813 0,-1.0612325 -0.2653081,-1.3265406 0,-1.5918488 0.2653082,0.2653082 1.8571569,0.2653082 2.1224651,0 z M 6.5959993,0.22953266 c -0.2653081,0.26530813 0,0.26530813 0,0.5306163 0.2653082,0.26530814 1.8571569,0.26530814 2.1224651,0 0,-0.26530817 0.2653081,-0.26530817 0,-0.5306163 -0.5306163,0 -1.5918488,0 -2.1224651,0 z"
     id="path6"
	 />
</svg>
