<?xml version="1.0" encoding="UTF-8" standalone="no"?>
<svg
   id="bubbletea"
   width="15"
   height="15"
   viewBox="0 0 15 15"
   xmlns="http://www.w3.org/2000/svg"><circle
     cx="6.9507422"
     cy="11.723972"
     r="0.72018379" /><circle
     cx="4.7524209"
     cy="12.008826"
     r="0.72018379" /><circle
     cx="5.1949897"
     cy="13.868068"
     r="0.72018379" /><circle
     cx="7.238709"
     cy="13.743273"
     r="0.72018379" /><circle
     cx="8.6928205"
     cy="12.298935"
     r="0.72018379" /><circle
     cx="10.147969"
     cy="11.132647"
     r="0.72018379" /><circle
     cx="9.4815378"
     cy="13.894848"
     r="0.72018379" /><rect
     style="fill:none;stroke:#000000;stroke-width:0.4;stroke-linejoin:round;stroke-dasharray:none;stroke-opacity:1"
     width="12.159907"
     height="1.8486266"
     x="1.4578528"
     y="7.0487447"
     ry="0.92431331" /><path
     style="fill:none;stroke:#000000;stroke-width:0.4;stroke-linejoin:round"
     d="M 1.5222886,8.0182962 H 13.612133"
     /><path
     style="fill:none;stroke:#000000;stroke-width:0.4;stroke-linejoin:round"
     transform="rotate(67.143304)"
     d="M 2.1066134,-3.9937781 9.3512299,-4.0527488 8.820042,-2.7818656 2.1046713,-2.6815175 Z"
     /><path
     d="M 5.8145499,6.8937631 4.2808537,3.4711518 C 3.5681506,4.2790713 2.8187507,5.4298037 2.8412934,6.9711435 Z"
     /><path
     d="M 5.5133044,2.5781797 C 8.7872192,1.12122 12.147601,3.3830766 12.259313,6.9155961 l -4.8107363,0.00437 z"
     /><path
     d="m 3.5293164,14.782607 0.8244231,-0.0062 c 0,0 -0.747216,-3.830184 -0.7253306,-4.147019 0.021885,-0.316834 0.1176954,-0.9252521 0.789649,-0.734358 0.6719536,0.190894 1.8711889,0.730435 3.2576815,0.645588 L 7.0393151,9.0813463 2.5978143,9.0789665 Z"
     /><path
     d="m 8.0403617,9.0374064 0.6070225,1.4431296 c 0.8055012,-0.156102 1.4906608,-0.4266 2.0906998,-0.6153088 0.600039,-0.1887085 0.719663,0.4779508 0.720788,0.8438978 0.0011,0.365947 -0.709632,4.066921 -0.709632,4.066921 l 0.825663,0.0033 0.92415,-5.7322953 z"
     /></svg>