<?xml version="1.0" encoding="UTF-8" standalone="no"?>
<svg
   width="580"
   height="580"
   viewBox="0 0 580 580"
   fill="none"
   version="1.1"
   id="svg3432"
   sodipodi:docname="camping.svg"
   inkscape:version="1.2.2 (b0a8486541, 2022-12-01)"
   xmlns:inkscape="http://www.inkscape.org/namespaces/inkscape"
   xmlns:sodipodi="http://sodipodi.sourceforge.net/DTD/sodipodi-0.dtd"
   xmlns="http://www.w3.org/2000/svg"
   xmlns:svg="http://www.w3.org/2000/svg">
  <defs
     id="defs3436" />
  <sodipodi:namedview
     id="namedview3434"
     pagecolor="#ffffff"
     bordercolor="#000000"
     borderopacity="0.25"
     inkscape:showpageshadow="2"
     inkscape:pageopacity="0.0"
     inkscape:pagecheckerboard="0"
     inkscape:deskcolor="#d1d1d1"
     showgrid="false"
     inkscape:zoom="28.084123"
     inkscape:cx="1.9762056"
     inkscape:cy="6.3915117"
     inkscape:window-width="1920"
     inkscape:window-height="1055"
     inkscape:window-x="0"
     inkscape:window-y="0"
     inkscape:window-maximized="1"
     inkscape:current-layer="svg3432" />
  <path
     fill-rule="evenodd"
     clip-rule="evenodd"
     d="M288.272 138.471C286.762 146.8 92.8252 507.193 92.8252 507.193L483.173 506.547L288.272 138.471Z"
     stroke="white"
     stroke-width="26.2797"
     id="path3422" />
  <path
     fill-rule="evenodd"
     clip-rule="evenodd"
     d="M288.272 162.581C287.532 166.66 275.502 187.262 301.104 277.13C327.777 370.757 399.376 507.193 399.376 507.193L483.173 506.547L288.272 162.581Z"
     fill="white"
     stroke="white"
     stroke-width="26.2797"
     id="path3424" />
  <path
     fill-rule="evenodd"
     clip-rule="evenodd"
     d="M291.652 162.581C292.392 166.66 304.422 187.262 278.82 277.13C252.147 370.757 180.548 507.193 180.548 507.193L96.751 506.547L291.652 162.581Z"
     fill="white"
     stroke="white"
     stroke-width="26.2797"
     id="path3426" />
  <path
     fill-rule="evenodd"
     clip-rule="evenodd"
     d="M249.696 63.7305L483.174 506.547L249.696 63.7305Z"
     stroke="white"
     stroke-width="26.2797"
     id="path3428" />
  <path
     fill-rule="evenodd"
     clip-rule="evenodd"
     d="M328.515 66.1414L95.3933 506.547L328.515 66.1414Z"
     stroke="white"
     stroke-width="26.2797"
     id="path3430" />
</svg>
