<?xml version="1.0" encoding="UTF-8" standalone="no"?>
<svg
   version="1.0"
   width="1280"
   height="1280"
   viewBox="0 0 1280 1280"
   id="candy"
   xmlns="http://www.w3.org/2000/svg">
  <g
     transform="matrix(0.1,0,0,-0.1,0,964)"
     fill="#000000"
     stroke="none"
     id="g6">
    <path
       fill="black"
       d="m 1908.584,2437.6442 c -57.9352,72.5259 4665.1401,4808.0503 5441.4308,4794.426 343.4197,-6.0272 538.2657,28.9282 771.0938,-203.0112 184.8646,-184.159 463.084,-422.1402 707.9282,-533.3846 287.181,54.794 567.4981,141.7965 653.0412,344.8617 85.5432,203.0652 -735.7088,1970.8957 -399.1021,1932.7876 357.6506,-40.4905 1510.1361,-321.5252 1535.4181,-646.1594 25.282,-324.6342 -115.067,-553.6581 156.27,-627.1808 271.337,-73.5227 344.144,-152.7666 249.933,-322.7552 -82.594,-149.0269 957.094,-469.271 1196.999,-510.9521 239.905,-41.6811 420.399,-338.9321 -350.258,-454.9388 -468.379,-70.5051 -1593.464,-234.6782 -1994.6277,-64.4861 -160.086,67.9158 -223.7626,-113.4784 -171.1488,-402.2737 43.1641,-236.9261 453.7605,-980.1719 466.5375,-1165.5503 12.778,-185.3783 5.877,-464.0267 -319.8508,-823.6457 C 9526.5207,3395.7626 5688.1023,-401.18 5175.6299,-787.721 c -512.4725,-386.54 -567.1021,-461.4812 -904.6164,-331.3984 -608.9466,234.69667 -908.9211,420.9104 -908.9211,420.9104 0,0 -361.6524,210.7307 -524.5155,-239.90499 -84.0586,-232.58651 -512.7775,-1303.85941 -567.3648,-1394.51541 -54.5873,-90.6559 -242.1424,-440.5386 -360.2161,-20.9266 -118.0736,419.612 -35.7567,679.4129 -89.7109,870.9239 -53.9542,191.511 -132.9569,206.3467 -328.0584,274.3517 -195.1014,68.006 -613.956,305.2394 -889.50422,768.9554 -275.54822,463.7164 -318.52563,728.18803 -208.82332,782.59223 109.7023,54.4043 407.05773,-71.52832 797.70314,-131.92775 391.8699,-60.58875 680.0045,-52.59239 1157.2736,33.47112 -95.7873,242.9709 -589.967,680.2099 -749.0728,1153.372 -159.1058,473.1622 -21.3014,700.856 308.7809,1039.4616 z"/>
  </g>
</svg>
