<?xml version="1.0" encoding="UTF-8" standalone="no"?>
<svg
   version="1.0"
   width="1280"
   height="1280"
   viewBox="0 0 1280 1280"
   preserveAspectRatio="xMidYMid"
   id="svg8"
   sodipodi:docname="candy.svg"
   inkscape:version="1.2.2 (b0a8486541, 2022-12-01)"
   xmlns:inkscape="http://www.inkscape.org/namespaces/inkscape"
   xmlns:sodipodi="http://sodipodi.sourceforge.net/DTD/sodipodi-0.dtd"
   xmlns="http://www.w3.org/2000/svg"
   xmlns:svg="http://www.w3.org/2000/svg">
  <defs
     id="defs12" />
  <sodipodi:namedview
     id="namedview10"
     pagecolor="#ffffff"
     bordercolor="#000000"
     borderopacity="0.25"
     inkscape:showpageshadow="2"
     inkscape:pageopacity="0.0"
     inkscape:pagecheckerboard="0"
     inkscape:deskcolor="#d1d1d1"
     inkscape:document-units="pt"
     showgrid="false"
     inkscape:zoom="0.28583855"
     inkscape:cx="582.49665"
     inkscape:cy="825.6409"
     inkscape:window-width="1920"
     inkscape:window-height="1080"
     inkscape:window-x="0"
     inkscape:window-y="0"
     inkscape:window-maximized="1"
     inkscape:current-layer="g6" />
  <metadata
     id="metadata2">
Created by potrace 1.15, written by Peter Selinger 2001-2017
</metadata>
  <g
     transform="matrix(0.1,0,0,-0.1,0,964)"
     fill="#000000"
     stroke="none"
     id="g6">
    <path
       d="m 9024.5093,8756.0766 c -13.562,-13.4399 -27.742,-44.1584 -33.464,-67.2466 -23.155,-104.6643 85.248,-495.0682 322.472,-1155.7548 172.892,-484.4482 198.556,-684.7057 102.806,-815.7201 -52.277,-71.8057 -100.668,-96.3209 -286.222,-142.6815 -82.181,-20.69 -168.275,-46.9789 -193.17,-58.7473 -113.776,-56.9462 -187.674,-13.6242 -610.7095,352.9294 -373.7597,323.7751 -521.9641,391.9514 -817.2241,376.4378 -183.5496,-9.2145 -296.9177,-47.693 -437.2463,-148.5869 C 6408.9121,6622.4119 5857.7987,6357.3255 4024.3017,4606.2555 2467.6429,3120.0684 1650.1263,2238.1979 1524.9848,1913.1157 c -42.5269,-113.0013 -22.1759,-317.8793 51.397,-504.7443 81.9103,-206.2366 190.2376,-374.6813 488.5571,-757.19608 167.9573,-214.2945 278.3163,-387.2848 261.2618,-408.7015 -4.1242,-4.4098 -162.5542,-23.8907 -351.7636,-42.6924 -249.7157,-23.3883 -382.2718,-29.7012 -486.1546,-24.8029 -173.2082,8.5604 -494.95389,59.4843 -744.30289,117.1014 -290.3479,67.5233 -320.5703,71.9805 -354.9034,51.182 -47.5486,-29.2715 -58.9904,-75.4478 -48.0098,-178.9704 19.7054,-180.464799 135.4935,-418.71739 330.344,-680.98174 297.912,-400.98255 616.43819,-662.18638 872.28959,-714.97228 216.463,-45.0473 300.0172,-198.2587 280.2193,-515.7166 -7.8337,-108.0821 -3.9538,-157.6759 19.6379,-290.8502 36.1552,-197.1727 112.6297,-435.0313 153.717,-473.1286 41.0873,-38.0971 90.9665,-42.7512 134.5266,-11.7336 71.948,50.7631 397.1279,735.0434 552.2126,1161.087 22.2045,61.5729 42.3163,114.1905 44.2733,116.9898 1.7461,3.9886 19.0996,-3.9748 37.085,-15.5051 l 31.9823,-21.3146 30.6026,55.7025 30.392,56.8915 -41.9159,22.0075 -42.1268,23.1966 42.8871,97.1225 c 98.7654,224.75269 199.0736,336.9526 317.9793,358.0165 130.7962,23.17039 226.5799,-5.23733 491.0951,-148.46643 573.9562,-311.61157 757.9071,-380.81387 959.6392,-363.47287 61.4843,5.9863 91.768,15.03 139.3164,44.3015 293.0576,173.32539 2726.1836,2464.7538 4829.9003,4545.7579 267.544,351.4348 595.9907,596.8789 639.0537,890.1708 11.278,81.7122 9.367,113.2594 -17.73,259.3028 -35.102,191.2274 -56.545,249.9736 -238.9537,635.8524 -64.939,138.1136 -139.687,303.9221 -164.351,367.0034 -51.361,130.7078 -88.692,306.8238 -81.192,389.0931 6.523,80.8695 46.508,228.9857 61.967,231.7241 7.134,1.2637 91.298,-16.9386 186.029,-39.4014 94.9407,-23.6514 224.4407,-48.5393 285.6517,-54.8649 204.907,-21.3408 634.196,-7.8377 1072.91,35.5414 261.607,25.4949 861.099,130.4675 951.455,167.322 104.201,41.7603 164.259,90.4168 180.939,148.5586 28.334,103.1286 -47.052,175.6202 -234.978,225.7229 -56.531,14.513 -186.526,49.1241 -288.043,75.2898 -213.603,56.5913 -396.712,121.037 -531.626,190.3414 -95.587,48.0647 -286.924,179.7298 -332.496,229.2961 -24.08,25.1672 -24.712,28.7344 -8.935,78.1312 28.619,94.595 -5.198,140.1119 -165.653,222.0608 -284.172,143.4261 -310.568,181.6729 -271.257,395.8935 34.856,183.9986 36.981,248.1464 11.338,309.8277 -58.856,145.3229 -317.14,281.0711 -842.3087,441.8972 -300.927,92.6287 -625.982,176.0784 -679.775,175.1336 -24.202,-1.8345 -47.141,-10.8036 -62.659,-27.0427 z"
       id="path4"
       style="stroke-width:1.20757"
       sodipodi:nodetypes="cccccccccccccccccccscccsccccccccccscccccccccscccccccccccccccc" />
  </g>
</svg>
