<?xml version="1.0" encoding="UTF-8" standalone="no"?>
<svg
   viewBox="0 0 15 15"
   xmlns="http://www.w3.org/2000/svg">
  <path
     d="m 12.770553,8.6963579 c 0,0 0,3.2684331 0,3.2684331 0,0 1.307373,0 1.307373,0 0,0 0,-3.2684331 0,-3.2684331 0,0 -1.307373,0 -1.307373,0 z M 12.247604,3.8329284 C 12.143013,3.754486 12.064571,3.649896 12.064571,3.4930112 V 2.316375 c 0,-0.078442 -0.0523,-0.1568848 -0.130734,-0.1568848 h -0.941313 c -0.07843,0 -0.130733,0.078443 -0.130733,0.1568848 v 1.1766362 c 0,0.444507 0.183033,0.8367193 0.549098,1.0720463 0.784424,0.5229496 1.281226,1.4119632 1.281226,2.3794199 v 0.575244 c 0,0.078442 0.0523,0.1568848 0.156884,0.1568848 h 0.915162 c 0.07845,3e-7 0.156884,-0.078442 0.156884,-0.1568848 v -0.575244 c 0,-1.2550787 -0.627539,-2.4055671 -1.673437,-3.111549 z M 9.5021188,8.6963579 c 0,0 -7.8442396,0 -7.8442396,0 -0.6536868,0 -0.6536868,3.2684331 0,3.2684331 0,0 7.8442396,0 7.8442396,0 0.6536872,0 0.6536872,-3.2684331 0,-3.2684331 z M 9.1099074,10.918893 H 5.5799999 V 9.742256 H 9.1099074 Z M 10.992524,4.8788273 C 10.548018,4.5650575 10.234248,4.0682559 10.234248,3.4930112 V 2.316375 c 0,-0.078442 -0.0523,-0.1568848 -0.156885,-0.1568848 H 9.162202 c -0.078448,0 -0.1568851,0.078443 -0.1568851,0.1568848 v 1.2812262 c 0,0.8367191 0.4706552,1.5427007 1.1504891,2.0395028 0.444507,0.2876222 0.705981,0.7844237 0.705981,1.3073734 v 0.575244 c 0,0.078442 0.0523,0.1568848 0.130733,0.1568848 h 0.94131 c 0.07845,3e-7 0.130733,-0.078442 0.130733,-0.1568848 v -0.575244 c 0,-0.8367193 -0.392212,-1.5949959 -1.072047,-2.0656501 z m 1.124342,3.8175306 c 0,0 -1.307373,0 -1.307373,0 0,0 0,3.2684331 0,3.2684331 0,0 1.307373,0 1.307373,0 0,0 0,-3.2684331 0,-3.2684331 z"
     style="stroke-width:2.61474" />
</svg>
