<?xml version="1.0" encoding="UTF-8" standalone="no"?>
<svg
   version="1.2"
   viewBox="0 0 50 50"
   overflow="inherit"
   id="svg4"
   sodipodi:docname="fish.svg"
   inkscape:version="1.2.2 (b0a8486541, 2022-12-01)"
   xmlns:inkscape="http://www.inkscape.org/namespaces/inkscape"
   xmlns:sodipodi="http://sodipodi.sourceforge.net/DTD/sodipodi-0.dtd"
   xmlns="http://www.w3.org/2000/svg"
   xmlns:svg="http://www.w3.org/2000/svg">
  <defs
     id="defs8" />
  <sodipodi:namedview
     id="namedview6"
     pagecolor="#ffffff"
     bordercolor="#000000"
     borderopacity="0.25"
     inkscape:showpageshadow="2"
     inkscape:pageopacity="0.0"
     inkscape:pagecheckerboard="0"
     inkscape:deskcolor="#d1d1d1"
     showgrid="false"
     inkscape:zoom="17.48"
     inkscape:cx="25.028604"
     inkscape:cy="25"
     inkscape:window-width="1920"
     inkscape:window-height="1080"
     inkscape:window-x="0"
     inkscape:window-y="0"
     inkscape:window-maximized="1"
     inkscape:current-layer="svg4" />
  <path
     d="m 0.79151781,26.08789 -0.056387,-0.169163 c 0,-0.140968 0.098677,-0.253743 0.2396461,-0.253743 l 6.85106089,0.0141 c 0.3524209,0 0.6202601,-0.281935 0.6202601,-0.634357 0,-0.26784 -0.126871,-0.451099 -0.380614,-0.606163 L 1.8487803,21.294966 c -0.1127744,-0.08459 -0.1832588,-0.211453 -0.1832588,-0.366517 0,-0.11278 0.04229,-0.239646 0.1127743,-0.310131 0,0 9.9592092,-14.5458343 36.0479912,-0.465195 l 9.92417,-5.145344 c 0.09868,-0.05638 0.211452,-0.08457 0.338323,-0.08457 0.408809,0 0.761229,0.366517 0.761229,0.80352 0,0.169162 -0.04229,0.310131 -0.11278,0.422905 l -5.850185,7.739161 5.850185,7.739162 c 0.07048,0.11278 0.11278,0.26784 0.11278,0.422904 0,0.451099 -0.35242,0.831714 -0.761229,0.831714 -0.126876,0 -0.239646,-0.02819 -0.338323,-0.08459 l -9.92417,-5.159441 c 0,0 -18.130916,14.60432 -37.00657579,-1.536553 z M 11.815242,22.930198 c 1.311005,0 2.354171,-1.113649 2.354171,-2.495138 0,-1.409684 -1.043166,-2.509237 -2.354171,-2.509237 -1.296909,0 -2.3400751,1.113649 -2.3400751,2.523333 0,1.38149 1.0431661,2.495139 2.3400751,2.495139 z"
     id="path2"
     sodipodi:nodetypes="ccccsccscccsscccsscccccssscc"
     style="stroke-width:1.40969" />
</svg>
