<?xml version="1.0" encoding="UTF-8" standalone="no"?>
<svg
   height="200"
   width="200"
   viewBox="0 0 200 200"
   version="1.1"
   id="svg6548"
   sodipodi:docname="hermine.svg"
   inkscape:version="1.2.2 (b0a8486541, 2022-12-01)"
   xmlns:inkscape="http://www.inkscape.org/namespaces/inkscape"
   xmlns:sodipodi="http://sodipodi.sourceforge.net/DTD/sodipodi-0.dtd"
   xmlns="http://www.w3.org/2000/svg"
   xmlns:svg="http://www.w3.org/2000/svg">
  <defs
     id="defs6552" />
  <sodipodi:namedview
     id="namedview6550"
     pagecolor="#ffffff"
     bordercolor="#000000"
     borderopacity="0.25"
     inkscape:showpageshadow="2"
     inkscape:pageopacity="0.0"
     inkscape:pagecheckerboard="0"
     inkscape:deskcolor="#d1d1d1"
     showgrid="false"
     inkscape:zoom="1.8458914"
     inkscape:cx="95.076016"
     inkscape:cy="171.46187"
     inkscape:window-width="1920"
     inkscape:window-height="1055"
     inkscape:window-x="0"
     inkscape:window-y="0"
     inkscape:window-maximized="1"
     inkscape:current-layer="svg6548" />
  <path
     style="fill:#ffffff;stroke-width:0.610391"
     d="M 69.538543,61.368402 C 68.134644,59.109954 59.039818,69.303484 49.39564,54.348905 67.341135,67.594389 75.154141,30.079758 91.512619,50.503442 c 6.470155,8.057161 -6.7143,28.322142 -21.974076,10.86496 z M 108.81723,22.08974 C 106.55878,20.685841 116.75232,11.591015 101.79774,1.9468369 115.04322,19.892332 77.528561,27.705338 97.952254,44.063816 106.00944,50.533961 126.27442,37.349515 108.81723,22.08974 Z m 29.08513,39.278662 c 1.40391,-2.258448 10.49873,7.935082 20.14291,-7.019497 -17.94551,13.245484 -25.75851,-24.269147 -42.11698,-3.845463 -6.47016,8.057161 6.71431,28.322142 21.97407,10.86496 z M 103.72047,56.271637 C 95.785357,98.693811 79.3048,129.82375 62.21385,151.18744 c 7.324693,-2.44157 15.259777,-8.54548 22.889665,-13.42861 -4.577934,10.98704 -9.461062,20.75331 -14.34419,30.51956 2.441564,-1.22079 12.20782,-10.98704 24.41564,-25.63643 1.831171,20.1429 4.883145,42.72737 8.545505,56.46117 3.66234,-13.7338 6.7143,-36.31827 8.54547,-56.46117 12.20783,14.64939 21.97408,24.41564 24.41563,25.63643 -4.88312,-9.76625 -9.76625,-19.53252 -14.34418,-30.51956 7.62989,4.88313 15.56497,10.98704 22.88967,13.42861 -17.09095,-21.36369 -33.57151,-52.493629 -41.50659,-94.915803 z"
     id="path6546" />
</svg>
