<?xml version="1.0" encoding="UTF-8" standalone="no"?>
<svg
   width="2048"
   height="2048"
   viewBox="0 0 2048 2048"
   id="photo"
   xmlns="http://www.w3.org/2000/svg">
  <g
     transform="translate(-256.4375,1567.0625)">
    <path
       d="m 432.55469,-1168.4062 c -83.2375,0 -150.24805,67.0105 -150.24805,150.248 v 990.341794 c 0,83.237495 67.01055,150.248046 150.24805,150.248046 H 2135.5273 c 83.2375,0 150.2481,-67.010551 150.2481,-150.248046 V -1018.1582 c 0,-83.2375 -67.0106,-150.248 -150.2481,-150.248 z m -23.00391,142.7109 H 2163.6934 V -14.595703 H 409.55078 Z"/>
    <path
       d="m 465.08518,-100.94608 c 0,0 231.03626,-321.35891 364.74844,-323.81953 133.71216,-2.46062 335.96718,112.50864 438.51278,112.50864 102.5457,0 249.9615,-344.80873 409.4541,-344.80873 159.4925,0 414.0476,554.42721 414.0476,554.42721 z"/>
    <circle
       cx="932.58667"
       cy="-804.92108"
       r="169.58" />
  </g>
</svg>
