<?xml version="1.0" encoding="UTF-8" standalone="no"?>
<svg
   width="15"
   height="15"
   viewBox="0 0 15 15"
   version="1.1"
   id="svg4"
   sodipodi:docname="search-result.svg"
   inkscape:version="1.2.2 (b0a8486541, 2022-12-01)"
   xml:space="preserve"
   xmlns:inkscape="http://www.inkscape.org/namespaces/inkscape"
   xmlns:sodipodi="http://sodipodi.sourceforge.net/DTD/sodipodi-0.dtd"
   xmlns="http://www.w3.org/2000/svg"
   xmlns:svg="http://www.w3.org/2000/svg"><defs
     id="defs8" /><sodipodi:namedview
     id="namedview6"
     pagecolor="#ffffff"
     bordercolor="#000000"
     borderopacity="0.25"
     inkscape:showpageshadow="2"
     inkscape:pageopacity="0.0"
     inkscape:pagecheckerboard="0"
     inkscape:deskcolor="#d1d1d1"
     showgrid="false"
     inkscape:zoom="22.977776"
     inkscape:cx="7.6160549"
     inkscape:cy="5.2877181"
     inkscape:window-width="949"
     inkscape:window-height="1041"
     inkscape:window-x="962"
     inkscape:window-y="5"
     inkscape:window-maximized="1"
     inkscape:current-layer="svg4" /><path
     d="M 12.136406,5.221983 A 4.742786,4.742786 0 0 1 7.3936196,9.9647717 4.742786,4.742786 0 0 1 2.6508334,5.221983 4.742786,4.742786 0 0 1 7.3936196,0.4791969 4.742786,4.742786 0 0 1 12.136406,5.221983 Z"
     id="path2"
     style="stroke-width:1.53045" /><path
     style="fill:#000000;stroke:#000000;stroke-width:2;stroke-linecap:round;stroke-linejoin:round;stroke-dasharray:none"
     d="m 7.3387527,9.964125 v 3.992709"
     id="path377" /><path
     style="fill:#555454;fill-opacity:1;stroke:none;stroke-width:2.40562;stroke-linecap:round;stroke-linejoin:round;stroke-dasharray:none"
     d="m 16.610208,-0.117545 c -1.730887,1.6602287 -0.540976,3.0937341 0.533904,3.0242276 1.156384,-0.074777 0.577266,-1.2647139 1.564674,-2.0409168 0.987408,-0.7762031 1.180079,-0.8630838 0.982469,-1.5367368 -0.267503,-0.9119214 -1.364849,-1.081577 -3.081047,0.553426 z"
     id="path6032"
     sodipodi:nodetypes="csssc" /></svg>
