<?xml version="1.0" encoding="UTF-8" standalone="no"?>
<svg
   width="580"
   height="580"
   viewBox="0 0 580 580"
   id="swimming_outdoor"
   xmlns="http://www.w3.org/2000/svg">
  <path
     style="fill:none;stroke:black;stroke-width:28"
     d="m 52.348509,358.66604 c 13.803744,0.0256 19.040048,-0.52362 36.517178,-8.9379 29.842063,-14.3673 43.764793,18.38045 79.711993,2.33084 53.14005,-23.72585 50.31623,16.02265 94.35513,-2.23584 44.0389,-18.2585 50.99578,21.2705 95.77309,0.95431 44.77731,-20.3162 54.9069,18.30582 94.6748,1.68248 39.7679,-16.62334 45.63849,2.17644 66.84524,2.19251"/>
  <path
     style="fill:none;stroke:black;stroke-width:28"
     d="m 52.348964,429.96922 c 13.80375,0.0256 19.04005,-0.52362 36.517179,-8.9379 29.842057,-14.3673 43.764787,18.38045 79.711987,2.33084 53.14006,-23.72585 50.31624,16.02265 94.35514,-2.23584 44.0389,-18.2585 50.99578,21.2705 95.77309,0.95431 44.77731,-20.3162 54.9069,18.30582 94.6748,1.68248 39.76789,-16.62334 45.63848,2.17644 66.84524,2.19251" />
  <path
     style="fill:none;stroke:black;stroke-width:28"
     d="m 52.348964,500.38601 c 13.80375,0.0256 19.04005,-0.52362 36.517176,-8.9379 29.84206,-14.3673 43.76479,18.38045 79.71199,2.33084 53.14006,-23.72585 50.31624,16.02265 94.35514,-2.23584 44.0389,-18.2585 50.99578,21.2705 95.77309,0.95431 44.77731,-20.3162 54.9069,18.30582 94.6748,1.68248 39.76789,-16.62334 45.63848,2.17644 66.84524,2.19251" />
  <path
     d="M252.649 303.361L382.049 234.318C371.871 211.992 364.687 195.161 360.502 183.171C356.202 171.24 354.393 168.583 356.825 162.913C359.313 157.066 355.864 156.18 374.811 148.443C393.755 140.411 450.425 117.377 468.918 116.255C487.017 115.31 486.282 135.273 483.285 142.007C480.003 148.561 463.15 150.215 450.369 155.413C437.416 160.374 423.164 165.925 406.707 172.068L465.92 302.357C458.286 308.912 448.161 311.454 434.475 310.448C420.562 309.093 402.011 295.863 384.706 295.8C367.456 295.863 347.775 310.627 331.997 310.921C316.161 310.86 303.605 298.105 290.371 296.808C277.082 295.504 264.583 297.688 252.649 303.361Z"
     fill="black"/>
  <path
     d="M485.133 190.619C505.083 190.619 521.271 207.525 521.271 228.358C521.271 249.191 505.082 266.097 485.133 266.097C465.185 266.097 448.994 249.191 448.994 228.358C448.994 207.525 465.184 190.619 485.133 190.619Z"
     fill="black"/>
  <path
     d="M165.327 305.899C150 303.063 134.391 298.697 117.425 292.786C100.344 286.529 71.2184 278.14 64.3177 269.93C57.4183 261.485 62.4512 244.594 76.3654 243.826C90.3334 243.058 118.046 255.461 146.834 265.738C175.451 275.899 208.197 288.597 246.825 304.484C242.074 307.082 235.797 307.909 227.765 306.727C219.621 305.367 209.328 297.866 198.865 297.632C188.346 297.453 177.317 300.289 165.327 305.899Z"
     fill="black"/>
</svg>
