<?xml version="1.0" encoding="UTF-8" standalone="no"?>
<svg
   width="48"
   height="48"
   viewBox="0 0 48 48"
   xmlns="http://www.w3.org/2000/svg">
  <path
     style="fill:#000000;stroke:none"
     d="M 11.679014,41.059955 7.7166574,47.811567 42.049908,47.785727 38.025883,41.042445"/>
  <path
     d="m 14.941088,0.43322702 c -1.904488,0 -3.731155,0.87934998 -5.0778428,2.44444888 -1.3466853,1.5651 -2.1033205,3.6880221 -2.1033205,5.9013901 v 24.246818 c 0,3.600021 2.5112253,6.518531 5.6088583,6.518531 h 22.435442 c 3.097633,0 5.60886,-2.91851 5.60886,-6.518531 V 8.779066 c 0,-2.213368 -0.756634,-4.3362901 -2.103322,-5.9013901 C 37.963075,1.312577 36.136409,0.43322702 34.231921,0.43322702 Z M 13.368783,6.9517584 H 35.804225 V 19.988823 H 13.368783 Z m 5.608861,22.8148596 c 0,1.800093 -1.255543,3.259266 -2.80443,3.259266 -1.548746,0 -2.804431,-1.459173 -2.804431,-3.259266 0,-1.800091 1.255685,-3.259266 2.804431,-3.259266 1.548887,0 2.80443,1.459175 2.80443,3.259266 z m 16.826581,0 c 0,1.800093 -1.255543,3.259266 -2.80443,3.259266 -1.548746,0 -2.80443,-1.459173 -2.80443,-3.259266 0,-1.800091 1.255684,-3.259266 2.80443,-3.259266 1.548887,0 2.80443,1.459175 2.80443,3.259266 z"
     style="fill:#000000;fill-opacity:1;stroke-width:1.51164" />
</svg>
