<?xml version="1.0" encoding="UTF-8" standalone="no"?>
<svg
   width="92"
   height="92"
   enable-background="new 0 0 708.66 283.46"
   version="1.1"
   viewBox="0 0 91.999998 92.000001"
   xml:space="preserve"
   id="svg176"
   sodipodi:docname="indoorequal.svg"
   inkscape:version="1.2.2 (b0a8486541, 2022-12-01)"
   xmlns:inkscape="http://www.inkscape.org/namespaces/inkscape"
   xmlns:sodipodi="http://sodipodi.sourceforge.net/DTD/sodipodi-0.dtd"
   xmlns="http://www.w3.org/2000/svg"
   xmlns:svg="http://www.w3.org/2000/svg"><defs
   id="defs180" /><sodipodi:namedview
   id="namedview178"
   pagecolor="#ffffff"
   bordercolor="#000000"
   borderopacity="0.25"
   inkscape:showpageshadow="2"
   inkscape:pageopacity="0.0"
   inkscape:pagecheckerboard="0"
   inkscape:deskcolor="#d1d1d1"
   showgrid="false"
   inkscape:zoom="5.3283414"
   inkscape:cx="78.917616"
   inkscape:cy="36.033727"
   inkscape:window-width="1920"
   inkscape:window-height="1080"
   inkscape:window-x="0"
   inkscape:window-y="0"
   inkscape:window-maximized="1"
   inkscape:current-layer="g174" />
<g
   transform="translate(-18.308,-95.761)"
   id="g174"><path
     d="m 64.074537,170.35291 -44.21482,-8.64049 v -11.85551 l 44.21482,8.64049 z"
     fill="#6667ad"
     id="path162"
     style="stroke-width:0.557775" /><path
     d="m 64.074537,158.49461 44.215373,-8.64049 v 11.85551 l -44.215373,8.64049 z"
     fill="#28285b"
     id="path164"
     style="stroke-width:0.557775" /><polygon
     points="610.92,166.58 690.19,151.08 610.92,136.07 531.65,151.08 "
     fill="#28285b"
     opacity="0.35"
     id="polygon166"
     transform="matrix(0.55777493,0,0,0.55777493,-276.68133,65.569314)" /><path
     d="m 64.074537,147.869 -44.21482,-8.64104 v -11.85551 l 44.21482,8.64105 z"
     fill="#6667ad"
     id="path168"
     style="stroke-width:0.557775" /><path
     d="m 64.074537,136.01071 44.215373,-8.64105 v 11.85551 l -44.215373,8.64104 z"
     fill="#28285b"
     id="path170"
     style="stroke-width:0.557775" /><polygon
     points="610.92,126.26 690.19,110.77 610.92,95.761 531.65,110.77 "
     fill="#28285b"
     opacity="0.35"
     id="polygon172"
     transform="matrix(0.55777493,0,0,0.55777493,-276.68133,65.569314)" /></g>
</svg>
