<?xml version="1.0" encoding="UTF-8" standalone="no"?>
<!-- Created with Inkscape (http://www.inkscape.org/) -->

<svg
   width="210mm"
   height="210mm"
   viewBox="0 0 210 210"
   version="1.1"
   id="svg1472"
   inkscape:version="1.2.2 (b0a8486541, 2022-12-01)"
   sodipodi:docname="panoramax-simple-choisi.svg"
   xmlns:inkscape="http://www.inkscape.org/namespaces/inkscape"
   xmlns:sodipodi="http://sodipodi.sourceforge.net/DTD/sodipodi-0.dtd"
   xmlns="http://www.w3.org/2000/svg"
   xmlns:svg="http://www.w3.org/2000/svg">
  <sodipodi:namedview
     id="namedview1474"
     pagecolor="#ffffff"
     bordercolor="#000000"
     borderopacity="0.25"
     inkscape:showpageshadow="2"
     inkscape:pageopacity="0.0"
     inkscape:pagecheckerboard="0"
     inkscape:deskcolor="#d1d1d1"
     inkscape:document-units="mm"
     showgrid="false"
     inkscape:zoom="0.7786055"
     inkscape:cx="505.39073"
     inkscape:cy="481.6303"
     inkscape:window-width="1920"
     inkscape:window-height="1055"
     inkscape:window-x="0"
     inkscape:window-y="0"
     inkscape:window-maximized="1"
     inkscape:current-layer="layer1" />
  <defs
     id="defs1469">
    <linearGradient
       y2="62.288601"
       x2="248.6918"
       y1="231.7114"
       x1="346.50821"
       gradientUnits="userSpaceOnUse"
       id="SVGID_1_"
       gradientTransform="matrix(1.0526299,0,0,1.0526299,-207.53032,-49.813698)">
      <stop
         id="stop4"
         style="stop-color:#8F2A85"
         offset="0" />
      <stop
         id="stop6"
         style="stop-color:#2570B6"
         offset="1" />
    </linearGradient>
  </defs>
  <g
     inkscape:label="Calque 1"
     inkscape:groupmode="layer"
     id="layer1">
    <circle
       style="fill:url(#SVGID_1_);stroke-width:1.05263"
       id="circle9"
       r="102.9472"
       cy="104.92291"
       cx="105.73237"
       class="st0" />
    <path
       style="fill:#ffffff;stroke-width:1.26755"
       id="path51"
       d="m 164.71611,93.34968 c -3.92939,0 -9.9277,-2.744756 -9.9277,-6.674149 V 67.314778 h -24.30417 c -3.92939,0 -7.36451,-5.552631 -7.36451,-9.482025 0,-3.929393 3.43512,-10.577911 7.36451,-10.577911 h 37.26585 c 3.92941,0 7.09827,3.168866 7.09827,7.098259 v 32.32243 c 0,3.929393 -6.20284,6.674149 -10.13225,6.674149 z"
       class="st1"
       sodipodi:nodetypes="sscsssssss" />
    <path
       style="fill:#ffffff;stroke-width:1.26755"
       id="path51-7"
       d="m 163.75111,121.30456 c -3.92939,0 -9.9277,2.74476 -9.9277,6.67415 v 19.36076 h -24.30417 c -3.92939,0 -7.3645,5.55263 -7.3645,9.48203 0,3.92938 3.43511,10.5779 7.3645,10.5779 h 37.26585 c 3.92941,0 7.09827,-3.16886 7.09827,-7.09825 v -32.32244 c 0,-3.92939 -6.20283,-6.67415 -10.13225,-6.67415 z"
       class="st1"
       sodipodi:nodetypes="sscsssssss" />
    <path
       style="fill:#ffffff;stroke-width:1.26755"
       id="path51-5"
       d="m 50.588997,93.054071 c 3.929391,0 9.927706,-2.744761 9.927706,-6.674153 V 67.019165 h 24.304168 c 3.929391,0 7.364505,-5.552632 7.364505,-9.482025 0,-3.929394 -3.435114,-10.577912 -7.364505,-10.577912 H 47.555019 c -3.929413,0 -7.098274,3.168866 -7.098274,7.098259 v 32.322431 c 0,3.929392 6.202839,6.674153 10.132252,6.674153 z"
       class="st1"
       sodipodi:nodetypes="sscsssssss" />
    <path
       style="fill:#ffffff;stroke-width:1.26755"
       id="path51-7-3"
       d="m 51.553996,121.00894 c 3.929391,0 9.927706,2.74476 9.927706,6.67416 v 19.36076 H 85.78587 c 3.929391,0 7.364504,5.55263 7.364504,9.48202 0,3.9294 -3.435113,10.57791 -7.364504,10.57791 H 48.520018 c -3.929413,0 -7.098274,-3.16886 -7.098274,-7.09826 V 127.6831 c 0,-3.9294 6.202838,-6.67416 10.132252,-6.67416 z"
       class="st1"
       sodipodi:nodetypes="sscsssssss" />
    <rect
       style="fill:#ffffff;stroke-width:4.13465;stroke-linecap:round;stroke-linejoin:round"
       id="rect344"
       width="62.448162"
       height="55.61969"
       x="76.138397"
       y="80.947235"
       ry="15.340883" />
  </g>
</svg>
