<?xml version="1.0" encoding="UTF-8" standalone="no"?>
<svg
   id="emoji"
   viewBox="0 0 72 72"
   version="1.1"
   sodipodi:docname="phone.svg"
   inkscape:version="1.2.2 (b0a8486541, 2022-12-01)"
   xmlns:inkscape="http://www.inkscape.org/namespaces/inkscape"
   xmlns:sodipodi="http://sodipodi.sourceforge.net/DTD/sodipodi-0.dtd"
   xmlns="http://www.w3.org/2000/svg"
   xmlns:svg="http://www.w3.org/2000/svg">
  <defs
     id="defs333" />
  <sodipodi:namedview
     id="namedview331"
     pagecolor="#ffffff"
     bordercolor="#000000"
     borderopacity="0.25"
     inkscape:showpageshadow="2"
     inkscape:pageopacity="0.0"
     inkscape:pagecheckerboard="0"
     inkscape:deskcolor="#d1d1d1"
     showgrid="false"
     inkscape:zoom="4.7922399"
     inkscape:cx="35.161011"
     inkscape:cy="35.474017"
     inkscape:window-width="1920"
     inkscape:window-height="1200"
     inkscape:window-x="0"
     inkscape:window-y="0"
     inkscape:window-maximized="1"
     inkscape:current-layer="line" />
  <g
     id="color"
     transform="matrix(1.1583457,0,0,1.1583457,-5.4731903,-2.0103438)">
    <rect
       x="30.815001"
       y="21.0455"
       width="10.1877"
       height="3.8138001"
       fill="#ffffff"
       id="rect292" />
    <path
       fill="#ea5a47"
       d="m 62.2981,16.4519 c -8,-6 -43.5383,-5.4488 -51.5383,0.5512 0,0 -3.4343,2.1604 -2.2396,8.6384 H 20.815 l 0.483,-4.1896 c 6,-4 24,-4 30,0 v 5 h 13 c 2,-6 -2,-10 -2,-10 z"
       id="path294"
       style="fill:#57bff5;fill-opacity:1" />
    <polygon
       fill="#d22f27"
       points="51.7182,21.1464 63.5713,21.0726 63.75,25.5101 51.9266,25.7185 "
       id="polygon296"
       style="fill:#2988e6;fill-opacity:1" />
    <path
       fill="#d22f27"
       d="M 8.5865,21.1439 20.3472,21.0581 20.0934,25.7228 8.9988,25.657 C 8.7171,25.6463 8.4894,25.4238 8.4722,25.1424 L 8.2495,21.5046 c -0.0119,-0.1947 0.142,-0.3594 0.337,-0.3608 z"
       id="path298"
       style="fill:#2988e6;fill-opacity:1" />
    <path
       fill="#ea5a47"
       d="m 24.875,29.3125 -2.2878,1.4359 c -2.3404,1.469 -4.2009,3.5896 -5.3529,6.1012 l -0.1876,0.4091 c -1.2265,2.6743 -1.2088,5.4081 -1.2757,8.3495 l -0.0465,6.3967 -0.1396,3.2332 40.5667,-0.093 0.0465,-10.2115 c -0.036,-1.7783 0.0817,-3.7978 -0.6978,-5.3965 l -1.4422,-3.6985 c -0.5138,-1.0538 -2.5803,-3.3784 -3.5589,-4.0241 l -4.4159,-2.1366 c -0.503,-0.2167 -0.8448,-0.694 -0.8879,-1.24 l -0.0695,-0.8801 -19.4386,1.0045 -0.8125,0.75 z"
       id="path300"
       style="fill:#57bff5;fill-opacity:1" />
    <polygon
       fill="#d22f27"
       points="28.8125,24.4375 26.6562,24.5938 26.75,25 26,29 26,30 46.125,30 45.2812,24.5312 43.1875,24.25 41.6875,26.4375 30.0625,26.5 "
       id="polygon302"
       style="fill:#2988e6;fill-opacity:1" />
    <path
       fill="#d22f27"
       d="m 39.3438,29.8438 c 0,0 12.691,3.649 12.441,25.149 5.6116,0.7635 4.4696,-0.0255 4.6954,-2.405 0.1014,-1.0688 0,-2.2904 -0.1909,-4.3137 L 56.213,42.3571 C 55.9665,41.0768 54.7549,36.3329 53.8722,35.3734 L 51.895,32.9543 c -1.7544,-1.9069 -3.8845,-2.768 -6.8051,-3.263 l -5.7461,0.1524 z"
       id="path304"
       style="fill:#2988e6;fill-opacity:1" />
  </g>
  <g
     id="line"
     transform="matrix(1.1583457,0,0,1.1583457,-5.4731903,-2.0103438)">
    <circle
       cx="30"
       cy="36.726601"
       r="2"
       id="circle307" />
    <circle
       cx="30"
       cy="42.726601"
       r="2"
       id="circle309" />
    <circle
       cx="30"
       cy="48.726601"
       r="2"
       id="circle311" />
    <circle
       cx="36"
       cy="36.726601"
       r="2"
       id="circle313" />
    <circle
       cx="36"
       cy="42.726601"
       r="2"
       id="circle315" />
    <circle
       cx="36"
       cy="48.726601"
       r="2"
       id="circle317" />
    <circle
       cx="42"
       cy="36.726601"
       r="2"
       id="circle319" />
    <circle
       cx="42"
       cy="42.726601"
       r="2"
       id="circle321" />
    <circle
       cx="42"
       cy="48.726601"
       r="2"
       id="circle323" />
    <path
       fill="none"
       stroke="#000000"
       stroke-linecap="round"
       stroke-linejoin="round"
       stroke-width="2"
       d="m 26,24 v 5 c 0,0 -3.5,0.5 -7,4 -3.5,3.5 -4,9.9999 -4,9.9999 V 56.0002 L 18,56 H 57 V 43.1252 C 57,43.1252 56.5,36.5 53,33 49.5,29.5 46,29 46,29 v -5 h -3 l -1.0003,3 H 29.8133 L 29,24 Z"
       id="path325" />
    <path
       fill="none"
       stroke="#000000"
       stroke-linecap="round"
       stroke-linejoin="round"
       stroke-width="2"
       d="m 61.9839,16.4519 c -8,-6 -44,-6 -52,0 0,0 -4,4 -2,10 h 13 v -5 c 6,-4 24,-4 30,0 v 5 h 13 c 2,-6 -2,-10 -2,-10 z"
       id="path327" />
  </g>
</svg>
